<svg height="511pt" viewBox="-71 1 511 511.999" width="511pt" xmlns="http://www.w3.org/2000/svg"><path d="m351.253906 285.882812h-24.261718v-255.332031c0-16.847656-13.710938-30.550781-30.5625-30.550781h-63.898438c-.011719 0-.019531 0-.03125 0h-95.351562c-.011719 0-.019532 0-.03125 0h-63.90625c-16.84375 0-30.550782 13.707031-30.550782 30.550781v229.945313c0 4.144531 3.359375 7.5 7.5 7.5s7.5-3.355469 7.5-7.5v-183.625h213.917969c4.140625 0 7.5-3.359375 7.5-7.5 0-4.144532-3.359375-7.5-7.5-7.5h-213.917969v-31.320313c0-8.574219 6.976563-15.550781 15.550782-15.550781h75.125c4.800781.015625 8.703124 3.925781 8.703124 8.726562 0 13.085938 10.644532 23.730469 23.726563 23.730469h4.058594c13.085937 0 23.730469-10.644531 23.730469-23.730469 0-4.800781 3.902343-8.710937 8.703124-8.726562h79.171876c8.582031 0 15.5625 6.976562 15.5625 15.550781v255.332031h-18.226563v-111.027343c0-4.140625-3.355469-7.5-7.5-7.5h-203.894531c-4.144532 0-7.5 3.359375-7.5 7.5v111.027343h-55.460938c-10.425781 0-18.910156 8.480469-18.910156 18.90625v149.898438c0 10.425781 8.484375 18.910156 18.910156 18.910156h23.25v7.851563c0 16.847656 13.707032 30.550781 30.550782 30.550781h223.21875c16.851562 0 30.5625-13.707031 30.5625-30.550781v-7.851563h24.261718c10.425782 0 18.910156-8.484375 18.910156-18.910156v-149.898438c0-10.425781-8.484374-18.90625-18.910156-18.90625zm-157.699218-262.15625c0 4.8125-3.917969 8.730469-8.730469 8.730469h-4.058594c-4.8125 0-8.726563-3.917969-8.726563-8.730469 0-3.078124-.589843-6.023437-1.664062-8.726562h24.84375c-1.074219 2.703125-1.664062 5.648438-1.664062 8.726562zm-103.683594 158.628907h188.894531v102.65625h-188.894531zm265.292968 272.332031c0 2.15625-1.753906 3.910156-3.910156 3.910156h-31.675781c-.03125 0-.058594-.003906-.085937-.003906-.03125 0-.058594.003906-.089844.003906h-52.917969c-4.140625 0-7.5 3.359375-7.5 7.5s3.359375 7.5 7.5 7.5h45.507813v7.851563c0 8.574219-6.984376 15.550781-15.5625 15.550781h-223.21875c-8.574219 0-15.550782-6.976562-15.550782-15.550781v-7.851563h169.371094c4.144531 0 7.5-3.359375 7.5-7.5s-3.355469-7.5-7.5-7.5h-176.785156c-.027344 0-.054688-.003906-.085938-.003906-.027344 0-.058594.003906-.085937.003906h-30.664063c-2.15625 0-3.910156-1.753906-3.910156-3.910156v-149.898438c0-2.152343 1.753906-3.90625 3.910156-3.90625h331.84375c2.15625 0 3.910156 1.753907 3.910156 3.90625zm0 0"/><path d="m330.902344 323.0625c-2.929688-2.929688-7.679688-2.929688-10.609375 0l-4.503907 4.503906-4.507812-4.503906c-2.929688-2.929688-7.675781-2.929688-10.605469 0-2.929687 2.929688-2.925781 7.675781 0 10.605469l4.503907 4.503906-4.503907 4.503906c-2.925781 2.925781-2.929687 7.675781 0 10.605469 1.464844 1.464844 3.382813 2.195312 5.304688 2.195312 1.917969 0 3.839843-.730468 5.304687-2.195312l4.503906-4.503906 4.507813 4.503906c1.460937 1.464844 3.382813 2.195312 5.300781 2.195312 1.921875 0 3.839844-.730468 5.304688-2.195312 2.929687-2.929688 2.929687-7.679688 0-10.605469l-4.503906-4.503906 4.503906-4.503906c2.925781-2.929688 2.925781-7.675781 0-10.605469zm0 0"/><path d="m99.109375 145.332031c13.644531 0 24.742187-11.097656 24.742187-24.742187 0-13.644532-11.101562-24.742188-24.742187-24.742188-13.644531 0-24.746094 11.097656-24.746094 24.742188 0 13.644531 11.101563 24.742187 24.746094 24.742187zm0-34.484375c5.371094 0 9.742187 4.371094 9.742187 9.742188 0 5.375-4.371093 9.746094-9.742187 9.746094-5.375 0-9.746094-4.371094-9.746094-9.746094 0-5.371094 4.371094-9.742188 9.746094-9.742188zm0 0"/><path d="m145.261719 113.382812h74.054687c4.140625 0 7.5-3.355468 7.5-7.5 0-4.140624-3.359375-7.5-7.5-7.5h-74.054687c-4.140625 0-7.5 3.359376-7.5 7.5 0 4.144532 3.359375 7.5 7.5 7.5zm0 0"/><path d="m145.261719 140.769531h23.332031c4.144531 0 7.5-3.359375 7.5-7.5s-3.355469-7.5-7.5-7.5h-23.332031c-4.140625 0-7.5 3.359375-7.5 7.5s3.359375 7.5 7.5 7.5zm0 0"/><path d="m40.488281 372.894531c1.597657.921875 3.390625 1.382813 5.183594 1.382813 1.789063 0 3.582031-.460938 5.179687-1.382813l29.757813-17.175781c3.195313-1.847656 5.179687-5.285156 5.179687-8.976562 0-3.6875-1.984374-7.128907-5.179687-8.972657l-29.757813-17.179687c-3.195312-1.84375-7.167968-1.84375-10.363281.003906-3.195312 1.84375-5.179687 5.28125-5.179687 8.972656v34.355469c0 3.6875 1.984375 7.128906 5.179687 8.972656zm9.820313-35.296875 15.839844 9.144532-15.839844 9.148437zm0 0"/><path d="m217.285156 394.554688h-176.503906c-4.144531 0-7.5 3.355468-7.5 7.5 0 4.140624 3.355469 7.5 7.5 7.5h176.503906c4.144532 0 7.5-3.359376 7.5-7.5 0-4.144532-3.359375-7.5-7.5-7.5zm0 0"/><path d="m141.207031 421.9375h-100.425781c-4.144531 0-7.5 3.359375-7.5 7.5 0 4.144531 3.355469 7.5 7.5 7.5h100.425781c4.140625 0 7.5-3.355469 7.5-7.5 0-4.140625-3.359375-7.5-7.5-7.5zm0 0"/></svg>