<svg id="Icons" height="512" viewBox="0 0 74 74" width="512" xmlns="http://www.w3.org/2000/svg"><path d="m10.313 28.38a1 1 0 0 1 -1-1v-7.92a1 1 0 0 1 2 0v7.92a1 1 0 0 1 -1 1z"/><path d="m10.313 55.54a1 1 0 0 1 -1-1v-7.92a1 1 0 0 1 2 0v7.92a1 1 0 0 1 -1 1z"/><path d="m10.313 41.96a1 1 0 0 1 -1-1v-7.92a1 1 0 0 1 2 0v7.92a1 1 0 0 1 -1 1z"/><path d="m59.172 72h-45.859a4 4 0 0 1 -4-4v-7.79a1 1 0 1 1 2 0v7.79a2 2 0 0 0 2 2h45.859a3 3 0 0 0 3-3v-60a3 3 0 0 0 -3-3h-45.859a2 2 0 0 0 -2 2v7.79a1 1 0 0 1 -2 0v-7.79a4 4 0 0 1 4-4h45.859a5.006 5.006 0 0 1 5 5v60a5.006 5.006 0 0 1 -5 5z"/><path d="m22.31 43.45a1 1 0 0 1 -1-1v-2.97a1 1 0 0 1 2 0v2.97a1 1 0 0 1 -1 1z"/><path d="m22.31 72a1 1 0 0 1 -1-1v-11.64a1 1 0 0 1 2 0v11.64a1 1 0 0 1 -1 1z"/><path d="m22.31 53.36a1 1 0 0 1 -1-1v-2.91a1 1 0 0 1 2 0v2.91a1 1 0 0 1 -1 1z"/><path d="m22.31 33.48a1 1 0 0 1 -1-1v-29.48a1 1 0 0 1 2 0v29.48a1 1 0 0 1 -1 1z"/><path d="m12.938 20.458h-5.167a3.833 3.833 0 0 1 0-7.666h5.167a3.833 3.833 0 1 1 0 7.666zm-5.167-5.666a1.833 1.833 0 0 0 0 3.666h5.167a1.833 1.833 0 1 0 0-3.666z"/><path d="m12.938 34.042h-5.167a3.834 3.834 0 0 1 0-7.667h5.167a3.834 3.834 0 0 1 0 7.667zm-5.167-5.667a1.834 1.834 0 0 0 0 3.667h5.167a1.834 1.834 0 0 0 0-3.667z"/><path d="m12.938 47.625h-5.167a3.834 3.834 0 0 1 0-7.667h5.167a3.834 3.834 0 0 1 0 7.667zm-5.167-5.667a1.834 1.834 0 0 0 0 3.667h5.167a1.834 1.834 0 0 0 0-3.667z"/><path d="m12.938 61.208h-5.167a3.833 3.833 0 0 1 0-7.666h5.167a3.833 3.833 0 1 1 0 7.666zm-5.167-5.666a1.833 1.833 0 0 0 0 3.666h5.167a1.833 1.833 0 1 0 0-3.666z"/><path d="m51.929 37h-18.372a1 1 0 0 1 -1-1v-3.372a7.169 7.169 0 0 1 7.161-7.161h6.05a7.169 7.169 0 0 1 7.161 7.161v3.372a1 1 0 0 1 -1 1zm-17.372-2h16.372v-2.372a5.167 5.167 0 0 0 -5.161-5.161h-6.05a5.167 5.167 0 0 0 -5.161 5.161z"/><path d="m42.742 27.447a6.224 6.224 0 1 1 6.224-6.224 6.231 6.231 0 0 1 -6.224 6.224zm0-10.447a4.224 4.224 0 1 0 4.224 4.223 4.228 4.228 0 0 0 -4.224-4.223z"/><path d="m68.058 23.007h-4.886a1 1 0 0 1 -1-1v-9.237a1 1 0 0 1 1-1h4.886a2.007 2.007 0 0 1 2 2v7.23a2.008 2.008 0 0 1 -2 2.007zm-3.886-2h3.886v-7.233h-3.89z"/><path d="m68.058 32.244h-4.886a1 1 0 0 1 -1-1v-9.237a1 1 0 0 1 1-1h4.886a2.007 2.007 0 0 1 2 2v7.233a2.007 2.007 0 0 1 -2 2.004zm-3.886-2h3.886v-7.233h-3.89z"/><path d="m68.058 41.48h-4.886a1 1 0 0 1 -1-1v-9.236a1 1 0 0 1 1-1h4.886a2.007 2.007 0 0 1 2 2v7.229a2.006 2.006 0 0 1 -2 2.007zm-3.886-2h3.886v-7.232h-3.89z"/></svg>