<svg height="512" viewBox="0 0 512 512" width="512" xmlns="http://www.w3.org/2000/svg"><g><path d="m224 464h-48a8 8 0 0 0 0 16h48a8 8 0 0 0 0-16z"/><path d="m456 104h-120v-68a28.031 28.031 0 0 0 -28-28h-216a28.031 28.031 0 0 0 -28 28v440a28.031 28.031 0 0 0 28 28h216a28.031 28.031 0 0 0 28-28v-180h120a8 8 0 0 0 8-8v-176a8 8 0 0 0 -8-8zm-210.25-80-4 16h-83.5l-4-16zm74.25 452a12.01 12.01 0 0 1 -12 12h-216a12.01 12.01 0 0 1 -12-12v-440a12.01 12.01 0 0 1 12-12h45.75l6.49 25.94a8 8 0 0 0 7.76 6.06h96a8 8 0 0 0 7.76-6.06l6.49-25.94h45.75a12.01 12.01 0 0 1 12 12v68h-96a8 8 0 0 0 -8 8v176a8 8 0 0 0 8 8h16v24a8 8 0 0 0 13.66 5.66l29.65-29.66h36.69zm128-196h-168a8.008 8.008 0 0 0 -5.66 2.34l-18.34 18.35v-12.69a8 8 0 0 0 -8-8h-16v-160h216z"/><path d="m392 160h-9.38a23.984 23.984 0 0 0 -38.62-25.87 23.984 23.984 0 0 0 -38.62 25.87h-9.38a8 8 0 0 0 -8 8v24a8 8 0 0 0 8 8v56a8 8 0 0 0 8 8h80a8 8 0 0 0 8-8v-56a8 8 0 0 0 8-8v-24a8 8 0 0 0 -8-8zm-40-8a8 8 0 1 1 8 8h-8zm-24-8a8.011 8.011 0 0 1 8 8v8h-8a8 8 0 0 1 0-16zm8 104h-24v-16h24zm0-32h-24v-16h24zm40 32h-24v-16h24zm0-32h-24v-16h24zm8-32h-80v-8h80z"/><path d="m120 352a8 8 0 0 0 -8 8v32a8 8 0 0 0 8 8h160a8 8 0 0 0 8-8v-32a8 8 0 0 0 -8-8zm152 32h-144v-16h144z"/></g></svg>