<svg height="496pt" viewBox="0 0 496 496" width="496pt" xmlns="http://www.w3.org/2000/svg"><path d="m320 248c17.648438 0 32-14.351562 32-32h-16c0 8.824219-7.175781 16-16 16s-16-7.175781-16-16h-16c0 17.648438 14.351562 32 32 32zm0 0"/><path d="m457.710938 317.472656-3.78125-1.265625c1.207031-3.367187 2.070312-7.328125 2.070312-12.230469 0-12.816406-5.40625-19.578124-9.753906-25.007812-3.757813-4.703125-6.246094-7.808594-6.246094-15.007812 0-7.191407 2.488281-10.304688 6.246094-15 4.347656-5.441407 9.753906-12.191407 9.753906-25 0-12.800782-5.40625-19.554688-9.753906-24.984376-3.757813-4.6875-6.246094-7.792968-6.246094-14.976562v-64c0-66.167969-53.832031-120-120-120-44.464844 0-83.273438 24.367188-104 60.390625v-28.390625h-16v42.585938l-32 12.796874-32-12.796874v-48l-48-19.203126-48 19.203126v48l-40 16v53.414062h16v-42.585938l32-12.796874 32 12.796874v37.171876l-40 16v58.828124l40 16v26.585938h16v-26.585938l32-12.796874 40 16 16.121094-6.449219c.597656 11.351562 5.550781 17.6875 9.640625 22.785156 3.75 4.703125 6.238281 7.808594 6.238281 15.007813 0 7.199218-2.488281 10.304687-6.246094 15.007812-4.347656 5.429688-9.753906 12.199219-9.753906 25.007812 0 4.902344.863281 8.863282 2.070312 12.230469l-3.78125 1.265625c-22.90625 7.632813-38.289062 28.984375-38.289062 53.128906v125.398438h352v-125.398438c0-24.144531-15.382812-45.496093-38.289062-53.128906zm-34.679688 100.871094c5.785156 5.785156 8.96875 13.480469 8.96875 21.65625s-3.183594 15.871094-8.96875 21.65625l-7.03125 7.03125v11.3125h-88v-144.464844c24.871094-2.671875 38.671875-17.496094 44.6875-29.535156l72.296875 24.097656-9.894531 14.839844c-12.488282 18.734375-19.089844 40.542969-19.089844 63.0625v3.3125zm-206.0625 43.3125c-5.785156-5.785156-8.96875-13.480469-8.96875-21.65625s3.183594-15.871094 8.96875-21.65625l7.03125-7.03125v-3.3125c0-22.519531-6.601562-44.328125-19.097656-63.0625l-9.894532-14.839844 72.296876-24.097656c6.015624 12.039062 19.824218 26.863281 44.6875 29.535156v144.464844h-87.992188v-11.3125zm15.367188-255.023438c-9.464844-3.21875-16.335938-12.097656-16.335938-22.632812 0-10.414062 6.710938-19.214844 16-22.527344v38.527344c0 2.238281.167969 4.433594.335938 6.632812zm-104.335938-55.25-32-12.796874v-37.171876l32-12.796874 32 12.796874v37.160157zm48-49.96875 27.878906-11.148437c-2.4375 9.527344-3.878906 19.453125-3.878906 29.734375v28.183594l-24-9.597656zm232 98.585938v-38.527344c9.289062 3.3125 16 12.113282 16 22.527344 0 10.535156-6.871094 19.414062-16.335938 22.632812.167969-2.199218.335938-4.394531.335938-6.632812zm-16-36.945312c0 11.554687-9.390625 20.945312-20.945312 20.945312h-17.167969c-7.984375 0-15.160157-4.441406-18.726563-11.574219l-2.214844-4.425781h-25.890624l-2.207032 4.425781c-3.574218 7.132813-10.75 11.574219-18.734375 11.574219h-17.167969c-11.554687 0-20.945312-9.390625-20.945312-20.945312v-11.054688c0-4.40625 3.59375-8 8-8h128c4.40625 0 8 3.59375 8 8zm-144 30.378906c5.960938 4.117187 13.167969 6.566406 20.945312 6.566406h17.167969c12.351563 0 23.605469-6.015625 30.4375-16h6.890625c6.832032 9.984375 18.085938 16 30.4375 16h17.167969c7.785156 0 14.984375-2.449219 20.945313-6.566406v6.566406c0 39.695312-32.304688 72-72 72-39.695313 0-72-32.304688-72-72v-6.566406zm72 94.566406c14.40625 0 27.984375-3.550781 40-9.710938v16.535157c-1.367188 4.160156-9.769531 25.175781-40 25.175781-30.144531 0-38.558594-20.816406-40-25.183594v-16.535156c12.015625 6.167969 25.59375 9.71875 40 9.71875zm113.753906-79.015625c3.757813 4.6875 6.246094 7.792969 6.246094 14.976563 0 7.191406-2.488281 10.296874-6.246094 15-4.347656 5.429687-9.753906 12.191406-9.753906 25 0 12.808593 5.40625 19.566406 9.753906 25 3.757813 4.703124 6.246094 7.816406 6.246094 15.015624 0 2.933594-.449219 5.199219-1.207031 7.183594l-62.792969-20.929687v-22.40625c13.6875-11.320313 23.824219-26.726563 28.710938-44.304688 11.386718-1.359375 21.296874-7.382812 27.6875-16.253906.457031.589844.914062 1.167969 1.355468 1.71875zm-113.753906-192.984375c57.34375 0 104 46.65625 104 104v32.207031c-4.671875-3.535156-10.054688-6.183593-16-7.390625v-.816406h-1.472656c-3.3125-9.289062-12.113282-16-22.527344-16h-128c-10.414062 0-19.214844 6.710938-22.527344 16h-1.472656v.808594c-5.945312 1.214844-11.328125 3.855468-16 7.390625v-32.199219c0-57.34375 46.65625-104 104-104zm-264 21.414062 32-12.796874 32 12.796874v37.171876l-32 12.796874-32-12.796874zm64 165.171876-32 12.796874-32-12.796874v-37.171876l32-12.796874 32 12.796874zm73.753906-3.601563c-1.921875 2.398437-4.035156 5.09375-5.808594 8.421875l-19.945312 7.976562-32-12.796874v-37.160157l32-12.800781 32 12.800781v18.574219c0 7.183594-2.488281 10.289062-6.246094 14.984375zm6.246094 104.992187c0-7.199218 2.488281-10.3125 6.246094-15.015624 4.347656-5.433594 9.753906-12.191407 9.753906-25 0-12.808594-5.40625-19.570313-9.753906-25-3.757813-4.703126-6.246094-7.808594-6.246094-15 0-7.183594 2.488281-10.289063 6.246094-14.984376.441406-.550781.898437-1.128906 1.355468-1.710937 6.390626 8.871094 16.300782 14.894531 27.6875 16.253906 4.886719 17.578125 15.023438 32.984375 28.710938 44.304688v22.40625l-62.785156 20.929687c-.765625-1.992187-1.214844-4.25-1.214844-7.183594zm-40 66.625c0-14.417968 7.753906-27.363281 19.832031-34.433593l11.761719 17.648437c10.125 15.191406 15.75 32.734375 16.351562 50.925782l-2.289062 2.296874c-8.808594 8.792969-13.65625 20.503907-13.65625 32.960938s4.847656 24.167969 13.65625 32.96875l2.34375 2.34375v4.6875h-48zm320 109.398438h-48v-4.6875l2.34375-2.34375c8.808594-8.800781 13.65625-20.511719 13.65625-32.96875s-4.847656-24.167969-13.65625-32.96875l-2.289062-2.296875c.601562-18.191406 6.226562-35.734375 16.351562-50.925781l11.761719-17.648438c12.078125 7.078125 19.832031 20.015625 19.832031 34.441406zm0 0"/><path d="m344 416h56v16h-56zm0 0"/><path d="m240 416h56v16h-56zm0 0"/><path d="m80 272h16v16h-16zm0 0"/><path d="m112 240h16v16h-16zm0 0"/><path d="m144 256h16v16h-16zm0 0"/><path d="m0 160h16v16h-16zm0 0"/><path d="m0 192h16v16h-16zm0 0"/></svg>