<svg id="Layer_1" enable-background="new 0 0 510 510" height="512" viewBox="0 0 510 510" width="512" xmlns="http://www.w3.org/2000/svg"><path d="m510 329.895v-30h-75.041c33.591-43.547 7.608-109.202-46.035-118.684 13.909-17.656 18.9-40.059 14.566-61.316h31.51v-30h-45.041c-35.081-47.541-110.691-36.055-130.43 19.323-13.047-5.861-26.689-5.827-39.229-.439-20.016-55.084-95.336-66.233-130.26-18.884h-45.04v30h31.509c-4.141 20.331.179 42.253 13.532 60h-90.041v30h30v90h-30v30h75.041c-37.035 48.436-1.499 120.323 59.959 120h375v-30h-30v-90zm-180-240c24.814 0 45 20.187 45 45-2.471 59.699-87.538 59.681-90 0 0-24.813 20.186-45 45-45zm-91.751 44.925c5.311-.354 11.05 1.991 17.081 6.972 1.303 14.211 6.574 27.289 14.711 38.104h-60.082c8.251-10.966 13.55-24.261 14.757-38.703 2.893-2.56 7.788-5.992 13.533-6.373zm-133.249.075c0-24.813 20.187-45 45-45 59.699 2.471 59.681 87.538 0 90-24.813 0-45-20.186-45-45zm-45 75h315c59.713 2.478 59.667 87.544 0 90-29.58 0-274.781 0-315 0zm390 210h-315c-59.713-2.478-59.667-87.544 0-90h315z"/></svg>