<svg id="Layer_1" enable-background="new 0 0 510 510" height="512" viewBox="0 0 510 510" width="512" xmlns="http://www.w3.org/2000/svg"><g><path d="m450 75v-60h-150c-17.907 0-33.997 7.896-45 20.377-11.003-12.481-27.093-20.377-45-20.377h-150v60h-60v420h510v-420zm-150-30h120v360h-150v-330c0-16.542 13.458-30 30-30zm-210 0h120c16.542 0 30 13.458 30 30v330h-150zm390 420h-450v-360h30v330h390v-330h30z"/><path d="m120 150h90v30h-90z"/><path d="m120 90h90v30h-90z"/><path d="m120 210h90v30h-90z"/><path d="m120 270h90v30h-90z"/><path d="m120 330h90v30h-90z"/><path d="m300 150h90v30h-90z"/><path d="m300 90h90v30h-90z"/><path d="m300 210h90v30h-90z"/><path d="m300 270h90v30h-90z"/><path d="m300 330h90v30h-90z"/></g></svg>